<?xml version="1.0" standalone="no"?><!DOCTYPE svg PUBLIC "-//W3C//DTD SVG 1.1//EN" "http://www.w3.org/Graphics/SVG/1.1/DTD/svg11.dtd"><svg t="1720065134695" class="icon" viewBox="0 0 1024 1024" version="1.1" xmlns="http://www.w3.org/2000/svg" p-id="3071" width="16" height="16" xmlns:xlink="http://www.w3.org/1999/xlink"><path d="M583.64 699.51c15.35 17.08 24.72 39.64 24.72 64.25 0 26.49-10.84 50.59-28.31 68.04-17.46 17.47-41.55 28.31-68.04 28.31-1.27 0-2.55-0.01-3.82-0.04-0.65-0.01-1.31-0.02-1.96-0.04-1.01-0.01-2.01-0.04-3.02-0.07-90.57-3.11-169-54.07-210.79-128.38-20.49-36.43-32.18-78.46-32.18-123.23 0-138.29 111.48-250.52 249.48-251.75-84.78 1.22-153.12 70.32-153.12 155.4 0 85.82 69.57 155.41 155.41 155.41 26.49 0 50.59 10.84 68.04 28.3 1.23 1.23 2.43 2.5 3.59 3.8z" fill="#4770DC" p-id="3072"></path><path d="M635.25 388.78c20.13 35.81 31.77 77.02 32.15 120.93-1.22-84.02-69.1-151.89-153.11-153.11-0.77-0.01-1.53-0.01-2.29-0.01s-1.53 0-2.29 0.01c-137.99 1.23-249.48 113.46-249.48 251.75 0 44.77 11.69 86.81 32.18 123.23C334.2 805.9 412.62 856.86 503.2 859.97c-185.26-4.59-334.58-153.91-339.17-339.17-0.04-1.01-0.06-2.01-0.07-3.02-0.01-0.66-0.02-1.32-0.04-1.96-0.02-1.27-0.04-2.55-0.04-3.82 0-139.05 112.72-251.76 251.76-251.76 94.28 0 176.46 51.82 219.61 128.54z" fill="#6F94F4" p-id="3073"></path><path d="M860.12 512v251.76c0 52.99-43.37 96.35-96.35 96.35-33.99 0-64-17.83-81.17-44.6a95.702 95.702 0 0 1-7.87-15.06 95.367 95.367 0 0 1-7.31-36.7V512c0-0.76 0-1.53-0.01-2.29-0.39-43.91-12.02-85.13-32.15-120.93-43.14-76.72-125.32-128.54-219.6-128.54-139.05 0-251.76 112.72-251.76 251.76 0-192.26 155.86-348.12 348.12-348.12 55.85 0 108.64 13.15 155.41 36.53C781.67 257.51 860.12 375.59 860.12 512z" fill="#97B4FF" p-id="3074"></path></svg>